<svg id="Capa_1" enable-background="new 0 0 512 512" height="512" viewBox="0 0 512 512" width="512" xmlns="http://www.w3.org/2000/svg"><g><path d="m63.768 169.657c4.232-3.548 4.787-9.855 1.239-14.087s-9.855-4.787-14.087-1.239-4.787 9.855-1.239 14.088c3.548 4.231 9.855 4.786 14.087 1.238z"/><path d="m322.781 327.844c23.028-66.901.619-138.637-50.743-181.474-.191-.184-.383-.368-.591-.539-.162-.134-.333-.25-.501-.372-14.782-12.113-31.912-21.855-51.014-28.43-43.453-14.959-89.839-11.502-130.614 9.732-4.908 2.556-6.814 8.605-4.259 13.514 2.556 4.907 8.605 6.814 13.514 4.258 35.851-18.668 76.635-21.707 114.838-8.558 13.647 4.698 26.144 11.239 37.325 19.238l-91.889 111.513-111.932 91.413c-4.503-6.388-8.533-13.177-12.027-20.339-17.078-35.008-19.502-74.57-6.825-111.4 2.875-8.353 6.506-16.459 10.792-24.094 2.708-4.825.993-10.933-3.832-13.641-4.826-2.71-10.933-.993-13.641 3.831-4.873 8.682-9 17.895-12.266 27.381-14.42 41.892-11.662 86.891 7.763 126.708 19.426 39.818 53.195 69.688 95.086 84.106 17.696 6.091 35.941 9.118 54.122 9.118 24.857-.001 49.589-5.661 72.587-16.88 39.817-19.425 69.687-53.193 84.107-95.085zm-18.947-6.522c-4.044 11.75-9.477 22.769-16.13 32.888l-96.888-73.969 120.466-18.171c1.61 19.489-.686 39.607-7.448 59.252zm-37.644-153.356c21.137 20.069 35.757 46.057 42.076 74.296l-117.958 17.793zm-36.302 236.956c-35.007 17.078-74.571 19.5-111.401 6.825-22.82-7.855-42.893-20.929-58.929-38.062l106.6-87.06 109.404 83.524c-12.587 14.331-28.015 26.158-45.674 34.773z"/><path d="m268.854 88.27c1.725 0 3.473-.446 5.068-1.383l22.851-13.432h153.533c4.202 12.563 16.072 21.645 30.03 21.645 17.459 0 31.664-14.204 31.664-31.664s-14.204-31.664-31.664-31.664c-13.958 0-25.827 9.082-30.03 21.645h-156.26c-1.785 0-3.538.477-5.077 1.381l-25.201 14.814c-4.77 2.804-6.364 8.944-3.56 13.714 1.867 3.176 5.211 4.944 8.646 4.944zm211.482-36.461c6.411 0 11.626 5.216 11.626 11.626s-5.215 11.626-11.626 11.626-11.626-5.216-11.626-11.626 5.215-11.626 11.626-11.626z"/><path d="m480.336 146.561c-13.958 0-25.827 9.082-30.03 21.645h-115.435c-5.533 0-10.019 4.486-10.019 10.019s4.485 10.019 10.019 10.019h115.436c4.202 12.563 16.072 21.645 30.03 21.645 17.459 0 31.664-14.204 31.664-31.664s-14.205-31.664-31.665-31.664zm0 43.29c-6.411 0-11.626-5.216-11.626-11.626s5.215-11.626 11.626-11.626 11.626 5.216 11.626 11.626-5.215 11.626-11.626 11.626z"/><path d="m480.336 275.779c-13.958 0-25.827 9.082-30.03 21.645h-85.276c-5.533 0-10.019 4.486-10.019 10.019s4.485 10.019 10.019 10.019h85.276c4.202 12.563 16.072 21.645 30.03 21.645 17.459 0 31.664-14.204 31.664-31.664s-14.204-31.664-31.664-31.664zm0 43.29c-6.411 0-11.626-5.216-11.626-11.626s5.215-11.626 11.626-11.626 11.626 5.216 11.626 11.626c.001 6.41-5.215 11.626-11.626 11.626z"/><path d="m480.336 416.901c-13.958 0-25.827 9.082-30.03 21.645h-137.346l-28.002-10.481c-5.181-1.94-10.955.69-12.895 5.87-1.939 5.183.689 10.956 5.871 12.895l29.701 11.116c1.123.421 2.313.636 3.512.636h139.16c4.202 12.563 16.072 21.645 30.03 21.645 17.459 0 31.664-14.204 31.664-31.664s-14.205-31.662-31.665-31.662zm0 43.29c-6.411 0-11.626-5.216-11.626-11.626s5.215-11.626 11.626-11.626 11.626 5.216 11.626 11.626c.001 6.41-5.215 11.626-11.626 11.626z"/></g></svg>